# xmcd
#
# Track frame offsets:
#	150
#	16257
#	38360
#	58608
#	74003
#	94553
#	106682
#	123599
#	143106
#	167128
#	184861
#	200326
#	213957
#	227470
#	243540
#	256536
#	280742
#
# Disc length: 3962 seconds
#
# Revision: 0
# Processed by: cddbd v1.5.2PL0 Copyright (c) Steve Scherf et al.
# Submitted via: EasyCDDAExtractor 16.0.8.1
#
DISCID=e00f7811
DTITLE=Nu Urban Traxx Volume 208 US
DYEAR=2014
DGENRE=R&B
TTITLE0=Beyonce\n - 711
TTITLE1=J. Cole\n - Apparently\n
TTITLE2=Rick Ross ft. K. Michelle\n - If They Knew\n
TTITLE3=Elle Varner\n - F It All\n
TTITLE4=Rich Gang ft. Juvenile\n - Sho Me Love\n
TTITLE5=Bobby Shmurda\n - Bobby Btch\n
TTITLE6=T.I. ft. Jeezy and Watch The Duck\n - G' S**t\n
TTITLE7=Travis Scott ft. Rich Homie Quan\n - Mamacita\n
TTITLE8=The Game ft. Stacy Barthe\n - The Purge\n
TTITLE9=TK N Cash\n - Mind Right\n
TTITLE10=P. Reign\n - DnF\n
TTITLE11=Beyonce\n - Ring Off\n
TTITLE12=TeeFLi ft. A$AP Rocky\n - Change Your World\n
TTITLE13=Ghostface Killah ft. Kandace Springs\n - Love Don't Live Here No More
TTITLE13=\n
TTITLE14=Pusha T\n - Lunch Money\n
TTITLE15=Mali Mall ft. Migos and Rayven Justice\n - 2 Piece\n
TTITLE16=Mr. Vegas\n - My Jam\n
EXTD=
EXTT0=
EXTT1=
EXTT2=
EXTT3=
EXTT4=
EXTT5=
EXTT6=
EXTT7=
EXTT8=
EXTT9=
EXTT10=
EXTT11=
EXTT12=
EXTT13=
EXTT14=
EXTT15=
EXTT16=
PLAYORDER=
